<svg height='300px' width='300px'  fill="#000000" xmlns="http://www.w3.org/2000/svg" xmlns:xlink="http://www.w3.org/1999/xlink" version="1.1" x="0px" y="0px" viewBox="0 0 100 100" style="enable-background:new 0 0 100 100;" xml:space="preserve"><g><path style="" d="M56.083,85.014c-0.001,0-0.001,0-0.002,0c-0.404,0-0.77-0.246-0.923-0.621L43.917,56.995   l-27.398-11.24c-0.374-0.154-0.619-0.519-0.62-0.924s0.243-0.771,0.617-0.925l66.851-27.667c0.375-0.154,0.804-0.069,1.09,0.217   c0.286,0.286,0.372,0.716,0.217,1.089L57.007,84.396C56.853,84.77,56.488,85.014,56.083,85.014z M19.524,44.826l25.54,10.478   c0.247,0.102,0.443,0.298,0.545,0.546l10.479,25.54l25.815-62.379L19.524,44.826z" fill="#000000"></path><path style="" d="M44.684,57.229c-0.256,0-0.512-0.098-0.707-0.293c-0.391-0.391-0.391-1.023,0-1.414l37.997-37.997   c0.391-0.391,1.023-0.391,1.414,0s0.391,1.023,0,1.414L45.391,56.936C45.196,57.131,44.94,57.229,44.684,57.229z" fill="#000000"></path></g></svg>